<?xml version="1.0" encoding="UTF-8"?>
<svg width="1200pt" height="1200pt" version="1.1" viewBox="0 0 1200 1200" xmlns="http://www.w3.org/2000/svg">
 <path d="m236.88 690.36 2.1602 3.1211c2.6406 3.9609 5.3984 7.8008 8.1602 12l312.72 449.28c9.1289 13.113 24.098 20.93 40.078 20.93s30.949-7.8164 40.078-20.93l312-448.92c3-4.1992 5.8789-8.2812 8.7617-12l1.9219-2.8789c56.477-87.387 79.516-192.22 64.887-295.24-14.633-103.02-65.953-197.29-144.53-265.5-78.578-68.203-179.13-105.76-283.18-105.76-104.05 0-204.61 37.555-283.18 105.76-78.578 68.207-129.9 162.48-144.53 265.5-14.629 103.02 8.4102 207.85 64.891 295.24zm363.12-413.64c47.738 0 93.523 18.965 127.28 52.723 33.758 33.758 52.723 79.539 52.723 127.28s-18.965 93.523-52.723 127.28c-33.754 33.754-79.539 52.719-127.28 52.719s-93.523-18.965-127.28-52.719c-33.758-33.758-52.723-79.543-52.723-127.28s18.965-93.52 52.723-127.28c33.754-33.758 79.539-52.723 127.28-52.723z"/>
</svg>
