<?xml version="1.0" encoding="UTF-8"?>
<svg width="1200pt" height="1200pt" version="1.1" viewBox="0 0 1200 1200" xmlns="http://www.w3.org/2000/svg">
 <path d="m314.4 1171.2c-8.3984 0-16.801-2.3984-24-7.1992-18-12-24-33.602-15.602-52.801l166.8-403.2h-147.6c-18 0-33.602-10.801-40.801-27.602-7.1992-16.801-3.6016-34.801 9.6016-48l592.8-594c14.398-14.398 38.398-16.801 55.199-6 18 12 24 33.602 15.602 52.801l-166.8 404.4h147.6c18 0 33.602 10.801 40.801 27.602 7.1992 16.801 3.6016 34.801-9.6016 48l-594 592.8c-8.3984 8.3984-19.199 13.199-30 13.199zm84-552h108c14.398 0 28.801 7.1992 36 19.199 8.3984 12 9.6016 27.602 3.6016 40.801l-108 259.2 362.4-362.4h-108c-14.398 0-28.801-7.1992-36-19.199-8.3984-12-9.6016-27.602-3.6016-40.801l108-259.2z"/>
</svg>
